Coordinates
version=1
nRows=38
nColumns=12
inDegrees=yes

Units are S.I. units (second, meters, Newtons, ...)
Angles are in degrees

endheader
time	SC_y	SC_z	SC_x	AC_y	AC_z	AC_x	GH_y	GH_z	GH_yy	EL_x	PS_y
       0.0              -58.25          32.53          57.28          54.78         -5.673         0.1154          38.25          -5.39          60.03          94.35          57.15
  0.006268              -58.25          32.52          57.27          54.78         -5.671         0.1176          38.24         -5.379           60.0          94.35          57.15
   0.01254              -58.25          32.52          57.27          54.77          -5.67           0.12          38.23         -5.368          59.98          94.36          57.15
    0.0188              -58.25          32.51          57.27          54.77         -5.668         0.1226          38.22         -5.356          59.95          94.36          57.16
   0.02507              -58.25          32.51          57.26          54.77         -5.666         0.1253          38.21         -5.343          59.92          94.37          57.16
   0.03134              -58.25           32.5          57.26          54.76         -5.665         0.1281           38.2         -5.329          59.89          94.37          57.16
   0.03761              -58.25           32.5          57.25          54.76         -5.663         0.1312          38.19         -5.314          59.85          94.38          57.16
   0.04388              -58.25          32.49          57.24          54.75          -5.66         0.1345          38.18         -5.298          59.81          94.39          57.16
   0.05014              -58.25          32.48          57.24          54.75         -5.658          0.138          38.16         -5.281          59.77          94.39          57.16
   0.05641              -58.25          32.48          57.23          54.75         -5.656         0.1418          38.15         -5.263          59.73           94.4          57.17
   0.06268              -58.25          32.47          57.22          54.74         -5.653         0.1459          38.13         -5.243          59.68          94.41          57.17
   0.06895              -58.24          32.46          57.22          54.73          -5.65         0.1503          38.12         -5.222          59.63          94.42          57.17
   0.07522              -58.24          32.45          57.21          54.73         -5.647          0.155           38.1         -5.199          59.58          94.43          57.17
   0.08148              -58.24          32.44           57.2          54.72         -5.644         0.1601          38.08         -5.174          59.52          94.44          57.18
   0.08775              -58.24          32.43          57.19          54.72         -5.641         0.1656          38.06         -5.148          59.46          94.45          57.18
   0.09402              -58.24          32.42          57.18          54.71         -5.637         0.1715          38.03         -5.119          59.39          94.46          57.18
    0.1003              -58.24          32.41          57.17           54.7         -5.633          0.178          38.01         -5.088          59.32          94.48          57.19
    0.1066              -58.24          32.39          57.16          54.69         -5.628         0.1851          37.98         -5.053          59.24          94.49          57.19
    0.1128              -58.24          32.38          57.14          54.68         -5.623         0.1928          37.95         -5.016          59.15          94.51          57.19
    0.1191              -58.24          32.36          57.13          54.67         -5.618         0.2013          37.91         -4.975          59.05          94.53           57.2
    0.1254              -58.24          32.34          57.11          54.66         -5.612         0.2106          37.88          -4.93          58.95          94.55           57.2
    0.1316              -58.24          32.32          57.09          54.65         -5.606         0.2208          37.84         -4.881          58.83          94.57          57.21
    0.1379              -58.23           32.3          57.07          54.63         -5.598         0.2321          37.79         -4.827          58.71          94.59          57.21
    0.1442              -58.23          32.28          57.05          54.62          -5.59         0.2446          37.74         -4.766          58.56          94.62          57.22
    0.1504              -58.23          32.25          57.03           54.6         -5.582         0.2585          37.69         -4.699          58.41          94.65          57.23
    0.1567              -58.23          32.22           57.0          54.58         -5.572          0.274          37.63         -4.624          58.23          94.68          57.24
     0.163              -58.23          32.18          56.97          54.56         -5.561         0.2914          37.56          -4.54          58.03          94.71          57.25
    0.1692              -58.22          32.15          56.94          54.54         -5.548         0.3109          37.48         -4.446          57.81          94.76          57.26
    0.1755              -58.22           32.1           56.9          54.51         -5.534          0.333           37.4         -4.339          57.56           94.8          57.27
    0.1818              -58.22          32.05          56.85          54.48         -5.518         0.3581           37.3         -4.218          57.28          94.85          57.28
     0.188              -58.22           32.0           56.8          54.44           -5.5         0.3867          37.18         -4.079          56.95          94.91           57.3
    0.1943              -58.21          31.93          56.75           54.4         -5.479         0.4196          37.06         -3.921          56.58          94.98          57.32
    0.2006              -58.21          31.86          56.68          54.35         -5.455         0.4575          36.91         -3.738          56.15          95.06          57.34
    0.2068               -58.2          31.77           56.6           54.3         -5.427         0.5016          36.73         -3.525          55.65          95.15          57.36
    0.2131              -58.19          31.67          56.51          54.24         -5.394         0.5531          36.53         -3.276          55.06          95.26          57.39
    0.2194              -58.19          31.55          56.41          54.16         -5.356         0.6139          36.29         -2.982          54.37          95.39          57.42
    0.2256              -58.18          31.41          56.28          54.07          -5.31         0.6862          36.01         -2.633          53.55          95.54          57.46
    0.2319              -58.17          31.24          56.13          53.96         -5.255         0.7728          35.67         -2.215          52.57          95.72          57.51
